PathFileType	4	(X/Y/Z)	/Users/itak/Documents/Research/Walk-IL/dataset/trc/00125_00007.trc
DataRate	CameraRate	NumFrames	NumMarkers	Units	OrigDataRate	OrigDataStartFrame	OrigNumFrames
100.000000	100.000000	4	53	mm	100.000000	90	727
Frame#	Time	RPSI			LPSI			L3			STRN			T10			C7			CLAV			RBAK			LBAK			LSHO			LUPA			LAEL			LAOL			LWTS			LWPS			LFRA			LIFD			LHPS			LHTS			RSHO			RUPA			RAEL			RAOL			RWTS			RWPS			RFRA			RIFD			RHTS			RHPS			RBHD			LFHD			RFHD			LBHD			LHIP			RHIP			RASI			LASI			LKNE			LTHI			LANK			LTIP			LTOE			LMT1			LMT5			LHEE			RKNE			RTHI			RANK			RTIP			RTOE			RMT1			RMT5			RHEE			
		X1	Y1	Z1	X2	Y2	Z2	X3	Y3	Z3	X4	Y4	Z4	X5	Y5	Z5	X6	Y6	Z6	X7	Y7	Z7	X8	Y8	Z8	X9	Y9	Z9	X10	Y10	Z10	X11	Y11	Z11	X12	Y12	Z12	X13	Y13	Z13	X14	Y14	Z14	X15	Y15	Z15	X16	Y16	Z16	X17	Y17	Z17	X18	Y18	Z18	X19	Y19	Z19	X20	Y20	Z20	X21	Y21	Z21	X22	Y22	Z22	X23	Y23	Z23	X24	Y24	Z24	X25	Y25	Z25	X26	Y26	Z26	X27	Y27	Z27	X28	Y28	Z28	X29	Y29	Z29	X30	Y30	Z30	X31	Y31	Z31	X32	Y32	Z32	X33	Y33	Z33	X34	Y34	Z34	X35	Y35	Z35	X36	Y36	Z36	X37	Y37	Z37	X38	Y38	Z38	X39	Y39	Z39	X40	Y40	Z40	X41	Y41	Z41	X42	Y42	Z42	X43	Y43	Z43	X44	Y44	Z44	X45	Y45	Z45	X46	Y46	Z46	X47	Y47	Z47	X48	Y48	Z48	X49	Y49	Z49	X50	Y50	Z50	X51	Y51	Z51	X52	Y52	Z52	X53	Y53	Z53	

91	0.9	43.53482437133789	1123.49658203125	1257.512084960938	27.87191963195801	1124.028198242188	1123.135986328125	28.5478515625	1162.09521484375	1191.024780273438	260.786865234375	1348.678588867188	1168.099975585938	13.45967102050781	1314.64501953125	1203.036865234375	61.41921615600586	1604.467407226562	1175.075561523438	233.7657470703125	1485.505126953125	1162.089111328125	9.617416381835938	1428.704467773438	1276.609619140625	38.51279449462891	1581.199462890625	1076.761352539062	112.2884063720703	1558.005249023438	996.6976318359375	70.33713531494141	1427.07861328125	936.3556518554688	62.23204803466797	1207.810668945312	920.2673950195312	5.191447257995605	1201.463745117188	986.8301391601562	162.9011840820312	950.5704345703125	956.3468017578125	76.73875427246094	924.4745483398438	947.0149536132812	73.82601165771484	1090.760864257812	918.5097045898438	178.6127471923828	759.5912475585938	988.2393798828125	104.668342590332	848.6527099609375	945.7032470703125	174.8959045410156	860.20654296875	948.070556640625	142.6404266357422	1588.6435546875	1347.270141601562	132.5785064697266	1518.584228515625	1416.508911132812	115.3749389648438	1224.186645507812	1450.672119140625	89.74765014648438	1220.39697265625	1358.72412109375	265.7171936035156	987.7091064453125	1410.341796875	199.7311401367188	967.9957275390625	1454.971801757812	144.0581207275391	1150.955200195312	1462.502807617188	293.0873413085938	795.18017578125	1384.436401367188	300.3857116699219	880.1928100585938	1409.902587890625	240.1553955078125	869.9851684570312	1450.72021484375	135.8336334228516	1779.523559570312	1238.422973632812	252.3010101318359	1820.674682617188	1053.119995117188	291.9353332519531	1840.135986328125	1175.912353515625	86.93148803710938	1763.490234375	1113.084228515625	115.8729476928711	1036.78564453125	1006.858581542969	173.4437408447266	1024.515747070312	1366.780029296875	254.1662139892578	1093.959716796875	1310.726318359375	224.1734771728516	1098.31201171875	1046.853515625	364.9038696289062	583.9805297851562	1025.733764648438	269.3039245605469	709.8497924804688	1005.503723144531	162.553466796875	95.08263397216797	1061.963500976562	222.0005950927734	343.2235107421875	1026.646362304688	387.7634887695312	58.82523727416992	1063.915649414062	322.94189453125	65.31661224365234	1115.163818359375	273.0365905761719	69.52035522460938	1013.378295898438	110.6848983764648	108.2974548339844	1136.9267578125	129.2898254394531	532.4649658203125	1324.041870117188	179.2727508544922	809.7019653320312	1354.952392578125	-30.54376602172852	34.07049179077148	1305.19921875	92.28763580322266	399.5550537109375	1334.272827148438	194.7097625732422	52.60542297363281	1234.402099609375	132.1268768310547	42.64323043823242	1196.657592773438	104.8378982543945	41.52815246582031	1317.960815429688	-93.69550323486328	35.71730041503906	1261.006713867188	
92	0.91	47.434326171875	1122.955200195312	1257.02685546875	31.35796737670898	1123.663330078125	1122.611083984375	32.20404052734375	1161.782348632812	1190.616455078125	264.8473205566406	1348.008911132812	1167.105590820312	17.68613052368164	1314.23779296875	1202.819946289062	65.77871704101562	1604.010864257812	1174.380981445312	237.9601135253906	1484.863159179688	1160.92822265625	14.30041980743408	1428.424926757812	1276.279296875	42.56489181518555	1580.59521484375	1076.215942382812	115.9925689697266	1557.284545898438	995.8569946289062	73.27729034423828	1426.419799804688	935.814208984375	63.78332138061523	1207.23388671875	919.9827880859375	7.371907234191895	1201.233032226562	987.1176147460938	163.1942596435547	949.3201293945312	955.1693725585938	76.69971466064453	923.8453979492188	946.6705322265625	74.56858062744141	1090.106079101562	918.150146484375	177.8693084716797	758.2589111328125	986.9491577148438	104.0658111572266	847.8209228515625	945.1024780273438	174.4374694824219	858.849609375	946.8327026367188	147.5836791992188	1588.375732421875	1346.296630859375	137.7706756591797	1518.348999023438	1415.591674804688	121.440673828125	1223.822143554688	1450.356811523438	95.1199951171875	1220.057006835938	1358.603149414062	273.4479370117188	988.6766357421875	1408.814819335938	207.8248901367188	968.3213500976562	1453.6494140625	150.6504058837891	1150.77392578125	1461.8701171875	302.46435546875	796.499267578125	1382.216430664062	309.1064453125	881.4981079101562	1407.905639648438	249.0948486328125	870.5956420898438	1448.882446289062	141.0630187988281	1779.375854492188	1236.802612304688	256.1969299316406	1819.31396484375	1050.50390625	296.7857971191406	1839.362182617188	1172.798583984375	91.16234588623047	1762.843139648438	1111.8974609375	119.1837387084961	1036.498291015625	1006.272155761719	177.4234619140625	1023.80615234375	1366.038452148438	258.1242980957031	1093.24365234375	1309.923095703125	227.7071838378906	1097.80517578125	1046.185302734375	369.8771362304688	585.121337890625	1022.753662109375	273.1968688964844	710.1843872070312	1003.016540527344	181.4315795898438	90.92365264892578	1061.406616210938	233.2859649658203	340.5925598144531	1025.011474609375	407.380859375	58.80526351928711	1061.6123046875	342.9059448242188	64.49472045898438	1113.308227539062	292.0207824707031	67.55683898925781	1011.893188476562	129.93115234375	103.312141418457	1136.715698242188	130.9174194335938	531.9932861328125	1323.703002929688	182.1801452636719	809.0767822265625	1354.182006835938	-30.47785186767578	34.17290496826172	1305.132934570312	93.41127014160156	399.2673645019531	1333.959228515625	194.9062194824219	52.28459930419922	1234.4267578125	132.3212127685547	42.60197067260742	1196.678833007812	104.9154586791992	41.54672241210938	1318.02197265625	-93.65653991699219	35.85144424438477	1260.904174804688	
93	0.92	51.50703430175781	1122.346313476562	1256.505004882812	34.97161102294922	1123.233032226562	1122.06396484375	36.03540420532227	1161.383911132812	1190.186889648438	269.0178833007812	1347.265747070312	1166.036865234375	22.01625061035156	1313.76123046875	1202.524780273438	70.24422454833984	1603.47314453125	1173.6083984375	242.2640228271484	1484.1455078125	1159.699462890625	19.09453010559082	1428.049194335938	1275.88623046875	46.72480010986328	1579.920166015625	1075.5888671875	119.8311920166016	1556.486450195312	994.946044921875	76.38128662109375	1425.688842773438	935.1917724609375	65.60927581787109	1206.587890625	919.5902709960938	9.74660587310791	1200.921997070312	987.2330932617188	163.6225891113281	947.964111328125	954.099365234375	76.83066558837891	923.16015625	946.1389770507812	75.5872802734375	1089.390502929688	917.6962890625	177.0523071289062	756.7979736328125	985.6201171875	103.6134719848633	846.9435424804688	944.3140869140625	174.0683898925781	857.4031982421875	945.666748046875	152.6214599609375	1588.023071289062	1345.249145507812	143.0599365234375	1518.024291992188	1414.596069335938	127.6333618164062	1223.364868164062	1449.982421875	100.5715560913086	1219.676147460938	1358.42138671875	281.3504028320312	989.62353515625	1407.165649414062	216.1102142333984	968.60595703125	1452.205444335938	157.4067840576172	1150.516357421875	1461.171508789062	312.0665893554688	797.8328857421875	1379.800415039062	318.0294799804688	882.803955078125	1405.7431640625	258.255615234375	871.180419921875	1446.886840820312	146.3688659667969	1779.143188476562	1235.107299804688	260.1503295898438	1817.880981445312	1047.828735351562	301.7022094726562	1838.521850585938	1169.626586914062	95.47794342041016	1762.107299804688	1110.64599609375	122.6379241943359	1036.112060546875	1005.644592285156	181.5263061523438	1023.045471191406	1365.272338867188	262.2756958007812	1092.4716796875	1309.032348632812	231.3731689453125	1097.207153320312	1045.433959960938	374.5587158203125	585.9985961914062	1019.646240234375	276.9180908203125	710.2975463867188	1000.405456542969	200.7238006591797	86.71611785888672	1060.501220703125	244.6144714355469	337.7999267578125	1023.132629394531	427.3031005859375	58.77487945556641	1059.186645507812	363.1403198242188	63.71842193603516	1111.255126953125	311.4056091308594	65.48120880126953	1010.168518066406	149.5389709472656	98.34049987792969	1136.07666015625	132.7491912841797	531.4786987304688	1323.259155273438	185.2368011474609	808.396728515625	1353.339965820312	-30.39910888671875	34.28820419311523	1305.059326171875	94.70140838623047	398.9498596191406	1333.564208984375	195.1298980712891	51.97684478759766	1234.407592773438	132.5149230957031	42.54275131225586	1196.672119140625	104.9765930175781	41.56344985961914	1318.065185546875	-93.627197265625	35.99628829956055	1260.78564453125	
94	0.93	55.76290512084961	1121.667846679688	1255.946899414062	38.72751998901367	1122.728759765625	1121.496826171875	40.04934692382812	1160.89697265625	1189.732055664062	273.2963256835938	1346.450073242188	1164.889892578125	26.44944000244141	1313.210815429688	1202.144775390625	74.80939483642578	1602.851440429688	1172.752319335938	246.6751861572266	1483.352661132812	1158.401000976562	23.96590423583984	1427.572998046875	1275.431884765625	50.98574447631836	1579.169555664062	1074.876098632812	123.7987060546875	1555.604614257812	993.9639892578125	79.65877532958984	1424.8798828125	934.4814453125	67.73552703857422	1205.865844726562	919.0845336914062	12.32098579406738	1200.525634765625	987.1486206054688	164.1867828369141	946.4965209960938	953.1472778320312	77.13358306884766	922.408935546875	945.4356079101562	76.90892791748047	1088.60791015625	917.1444091796875	176.1612091064453	755.2068481445312	984.2960815429688	103.3080825805664	846.0103149414062	943.3591918945312	173.7967529296875	855.8622436523438	944.5875854492188	157.7477264404297	1587.584106445312	1344.122924804688	148.4383239746094	1517.611206054688	1413.52001953125	133.945068359375	1222.82421875	1449.53759765625	106.0981826782227	1219.2470703125	1358.147216796875	289.4126586914062	990.542236328125	1405.390258789062	224.5881958007812	968.8512573242188	1450.6513671875	164.3209381103516	1150.1845703125	1460.402954101562	321.8600158691406	799.1658935546875	1377.210327148438	327.1286315917969	884.099609375	1403.424072265625	267.61767578125	871.7453002929688	1444.7548828125	151.7504425048828	1778.821044921875	1233.336059570312	264.1617126464844	1816.383056640625	1045.084228515625	306.6830444335938	1837.609619140625	1166.39453125	99.87718963623047	1761.281127929688	1109.328979492188	126.2314758300781	1035.622436523438	1004.969604492188	185.7969818115234	1022.234191894531	1364.460571289062	266.6266479492188	1091.642211914062	1308.047607421875	235.1759643554688	1096.516357421875	1044.585571289062	378.9487609863281	586.6016845703125	1016.418762207031	280.4806213378906	710.1904296875	997.6968994140625	220.3359222412109	82.53414916992188	1059.23486328125	255.9456024169922	334.8933715820312	1021.026184082031	447.4471435546875	58.8140754699707	1056.630615234375	383.5524597167969	63.05451583862305	1109.002685546875	331.1108093261719	63.35733413696289	1008.203918457031	169.4228515625	93.45524597167969	1135.014526367188	134.7787322998047	530.9251708984375	1322.707885742188	188.4662628173828	807.6619873046875	1352.411010742188	-30.30764770507812	34.42081451416016	1304.975830078125	96.14557647705078	398.6065979003906	1333.088623046875	195.3762969970703	51.66470718383789	1234.33544921875	132.6982879638672	42.46162033081055	1196.634033203125	105.0182952880859	41.57341384887695	1318.083618164062	-93.60894775390625	36.15787506103516	1260.645263671875	
